<svg id="Capa_1" xmlns="http://www.w3.org/2000/svg" xmlns:xlink="http://www.w3.org/1999/xlink" width="512" height="512" viewBox="0 0 512 512" enable-background="new 0 0 512 512"><g><path d="M4.393 443.967l63.641 63.641c2.928 2.93 6.768 4.394 10.605 4.394s7.678-1.465 10.606-4.394l86.508-86.508 42.427 42.427c3.676 3.677 8.994 5.188 14.053 3.991 5.06-1.193 9.14-4.923 10.785-9.854l84.853-254.559c1.797-5.39.394-11.332-3.624-15.35s-9.961-5.421-15.35-3.624L54.338 268.982c-4.932 1.645-8.66 5.725-9.854 10.785-1.195 5.06.315 10.377 3.991 14.053l42.428 42.426L4.394 422.754C-1.465 428.612-1.465 438.109 4.393 443.967z"/><path d="M332 105V15c0-8.284-6.716-15-15-15s-15 6.716-15 15v90c0 8.284 6.716 15 15 15S332 113.284 332 105z"/><path d="M370.033 120.754c-5.858 5.858-5.858 15.355.0 21.213 5.857 5.858 15.355 5.858 21.213.0l63.641-63.64c5.857-5.858 5.857-15.355.0-21.213-5.859-5.858-15.357-5.858-21.214.0L370.033 120.754z"/><path d="M370.033 248.033c-5.858 5.858-5.858 15.355.0 21.213l63.64 63.64c5.856 5.858 15.356 5.858 21.214.0 5.857-5.857 5.857-15.354.0-21.213l-63.641-63.64C385.389 242.175 375.891 242.175 370.033 248.033z"/><path d="M263.967 141.967c5.858-5.858 5.858-15.355.0-21.213l-63.64-63.64c-5.858-5.858-15.356-5.858-21.213.0-5.858 5.858-5.858 15.354.0 21.213l63.64 63.64C248.611 147.825 258.109 147.825 263.967 141.967z"/><path d="M407 210h90c8.284.0 15-6.716 15-15s-6.716-15-15-15h-90c-8.284.0-15 6.716-15 15S398.716 210 407 210z"/></g><path fill="#fff" d="M36.213 433.361l86.508-86.509c5.858-5.856 5.854-15.36.0-21.213L86.85 289.77l203.073-67.691-67.69 203.073-35.871-35.871c-5.857-5.858-15.356-5.858-21.213.0L78.64 475.787 36.213 433.361z"/></svg>