<?xml version="1.0" encoding="utf-8"?>
<!-- Generator: Adobe Illustrator 16.0.0, SVG Export Plug-In . SVG Version: 6.00 Build 0)  -->
<!DOCTYPE svg PUBLIC "-//W3C//DTD SVG 1.1//EN" "http://www.w3.org/Graphics/SVG/1.1/DTD/svg11.dtd">
<svg version="1.1" id="Layer_1" xmlns="http://www.w3.org/2000/svg" xmlns:xlink="http://www.w3.org/1999/xlink" x="0px" y="0px"
	 width="46.065px" height="30.473px" viewBox="0 0 46.065 30.473" enable-background="new 0 0 46.065 30.473" xml:space="preserve">
<g>
	<path fill-rule="evenodd" clip-rule="evenodd" d="M41.052,23.872c-3.11,1.877-6.171,3.732-9.245,5.566
		c-0.25,0.148-0.585,0.192-0.887,0.217c-3.456,0.282-6.909,0.558-10.365,0.814c-0.293,0.023-0.617-0.046-0.896-0.156
		c-3.405-1.345-6.813-2.696-10.204-4.077c-0.378-0.154-0.763-0.447-0.991-0.782c-1.505-2.205-2.977-4.435-4.438-6.668
		c-0.191-0.293-0.327-0.653-0.384-0.997c-0.321-1.946-0.609-3.896-0.92-5.91c1.629-0.822,3.269-1.655,4.91-2.481
		c1.603-0.805,3.2-1.618,4.815-2.395c0.305-0.147,0.688-0.229,1.022-0.195c3.642,0.365,7.286,0.728,10.918,1.175
		c0.68,0.083,1.344,0.494,1.967,0.84c2.601,1.445,5.179,2.918,7.762,4.388c0.151,0.086,0.293,0.219,0.389,0.365
		c2.15,3.331,4.296,6.668,6.439,10.004C40.984,23.641,40.998,23.72,41.052,23.872z M18.767,28.039
		c0.667,0.178,1.328,0.476,2.003,0.506c0.925,0.043,1.864-0.079,2.782-0.216c0.338-0.049,0.725-0.269,0.939-0.532
		c1.444-1.782,2.86-3.587,4.256-5.407c0.22-0.286,0.38-0.672,0.423-1.029c0.196-1.663,0.368-3.331,0.486-5.003
		c0.026-0.37-0.116-0.81-0.317-1.129c-0.766-1.202-1.553-2.391-2.396-3.538c-0.79-1.074-1.932-1.723-3.205-1.927
		c-2.009-0.321-4.043-0.481-6.071-0.654c-0.32-0.027-0.734,0.154-0.988,0.374c-1.334,1.162-2.051,2.765-2.977,4.227
		c-0.647,1.021-0.732,2.058-0.621,3.189c0.114,1.136,0.284,2.28,0.231,3.412c-0.103,2.232,0.681,3.966,2.414,5.381
		C16.716,26.499,17.392,27.702,18.767,28.039z M14.401,8.688c-0.418,0.041-0.951-0.043-1.354,0.15
		c-2.618,1.269-5.212,2.587-7.796,3.924c-0.187,0.097-0.347,0.482-0.319,0.711c0.127,1.108,0.278,2.217,0.511,3.307
		c0.124,0.587,0.348,1.186,0.667,1.692c1.034,1.646,2.239,3.194,3.175,4.892c0.805,1.457,2.195,1.631,3.508,2.09
		c-0.199-0.337-0.48-0.593-0.691-0.896c-0.183-0.26-0.39-0.567-0.415-0.867c-0.222-2.635-0.433-5.271-0.577-7.91
		c-0.033-0.595,0.078-1.272,0.349-1.794C12.366,12.224,13.376,10.515,14.401,8.688z M38.456,23.196
		c-1.683-2.616-3.351-5.148-4.95-7.721c-0.711-1.141-1.913-1.442-2.964-2.036c0.139,0.359,0.294,0.69,0.529,0.947
		c0.555,0.602,0.645,1.275,0.547,2.064c-0.192,1.562-0.365,3.13-0.431,4.701c-0.043,1.064-0.371,1.936-1.064,2.729
		c-0.696,0.794-1.34,1.635-1.996,2.464c-0.426,0.54-0.825,1.097-1.315,1.746c1.254-0.097,2.365-0.17,3.471-0.274
		c0.303-0.028,0.629-0.087,0.882-0.236C33.571,26.149,35.967,24.698,38.456,23.196z"/>
	<path fill-rule="evenodd" clip-rule="evenodd" d="M39.354,20.322c-0.218-0.618-0.406-1.155-0.63-1.786
		c2.232-0.669,4.432-1.326,6.711-2.01c0.201,0.566,0.394,1.114,0.631,1.782C43.83,18.978,41.64,19.637,39.354,20.322z"/>
	<path fill-rule="evenodd" clip-rule="evenodd" d="M10.026,7.704C9.408,7.89,8.844,8.062,8.199,8.256
		C7.47,6.197,6.756,4.179,6.023,2.104c0.616-0.187,1.18-0.358,1.824-0.554C8.579,3.614,9.294,5.635,10.026,7.704z"/>
	<path fill-rule="evenodd" clip-rule="evenodd" d="M13.651,0.397C14.276,0.266,14.853,0.143,15.521,0
		c0.495,1.952,0.98,3.871,1.478,5.828c-0.646,0.129-1.245,0.249-1.884,0.377C14.62,4.248,14.144,2.348,13.651,0.397z"/>
	<path fill-rule="evenodd" clip-rule="evenodd" d="M0,6.541c0.499-0.409,0.955-0.78,1.452-1.185C2.747,6.819,4.008,8.244,5.323,9.73
		c-0.504,0.414-0.956,0.785-1.444,1.188C2.578,9.452,1.304,8.014,0,6.541z"/>
	<path fill-rule="evenodd" clip-rule="evenodd" d="M22.567,6.854c-0.21-0.006-0.265,0.004-0.313-0.01
		c-1.549-0.465-1.549-0.465-1.293-2.064c0.199-1.244,0.396-2.488,0.601-3.786c0.635,0.114,1.229,0.22,1.92,0.342
		C23.173,3.198,22.873,5.012,22.567,6.854z"/>
	<path fill-rule="evenodd" clip-rule="evenodd" d="M32.573,10.432c1.746-1.108,3.4-2.158,5.089-3.232
		c0.346,0.546,0.661,1.043,1.019,1.615c-1.491,0.883-2.927,1.751-4.389,2.573c-0.143,0.079-0.465-0.09-0.665-0.208
		C33.296,10.984,32.994,10.736,32.573,10.432z"/>
	<path fill-rule="evenodd" clip-rule="evenodd" d="M41.207,12.16c0.258,0.627,0.472,1.151,0.722,1.761
		c-1.705,0.616-3.379,1.217-5.078,1.829c-0.234-0.608-0.445-1.158-0.675-1.762C37.83,13.387,39.481,12.787,41.207,12.16z"/>
	<path fill-rule="evenodd" clip-rule="evenodd" d="M29.804,3.973c0.598,0.325,1.095,0.596,1.687,0.92
		c-0.732,1.461-1.463,2.917-2.229,4.442c-0.621-0.31-1.139-0.566-1.74-0.865C28.3,6.935,29.032,5.494,29.804,3.973z"/>
	<path fill-rule="evenodd" clip-rule="evenodd" fill="#FFFFFF" d="M18.767,28.039c-1.375-0.337-2.051-1.541-3.04-2.347
		c-1.733-1.415-2.517-3.149-2.414-5.381c0.053-1.131-0.117-2.276-0.231-3.412c-0.111-1.132-0.026-2.169,0.621-3.189
		c0.926-1.462,1.643-3.064,2.977-4.227c0.254-0.22,0.668-0.401,0.988-0.374c2.028,0.173,4.063,0.333,6.071,0.654
		c1.273,0.204,2.415,0.853,3.205,1.927c0.843,1.147,1.63,2.336,2.396,3.538c0.201,0.319,0.344,0.759,0.317,1.129
		c-0.118,1.672-0.29,3.34-0.486,5.003c-0.043,0.357-0.203,0.743-0.423,1.029c-1.396,1.82-2.812,3.625-4.256,5.407
		c-0.215,0.264-0.602,0.483-0.939,0.532c-0.918,0.137-1.857,0.259-2.782,0.216C20.095,28.515,19.434,28.217,18.767,28.039z
		 M25.881,20.314c0.327-0.793,0.572-1.366,0.803-1.944c0.234-0.589-0.309-2.895-0.772-3.294c-0.076-0.065-0.182-0.1-0.274-0.136
		c-1.686-0.663-3.366-1.338-5.062-1.965c-0.251-0.093-0.664-0.066-0.869,0.085c-0.995,0.74-1.95,1.535-2.905,2.329
		c-0.169,0.141-0.313,0.346-0.401,0.551c-0.396,0.931-0.773,1.871-1.143,2.813c-0.072,0.183-0.18,0.453-0.102,0.579
		c0.761,1.23,1.554,2.44,2.352,3.648c0.063,0.093,0.224,0.125,0.345,0.172c1.2,0.488,2.4,0.986,3.612,1.446
		c0.205,0.077,0.563,0.089,0.702-0.034C23.653,23.263,25.698,22.429,25.881,20.314z"/>
	<path fill-rule="evenodd" clip-rule="evenodd" fill="#FFFFFF" d="M14.401,8.688c-1.025,1.827-2.035,3.536-2.943,5.299
		c-0.271,0.522-0.382,1.2-0.349,1.794c0.145,2.639,0.355,5.275,0.577,7.91c0.025,0.3,0.232,0.607,0.415,0.867
		c0.211,0.303,0.492,0.559,0.691,0.896c-1.313-0.459-2.703-0.633-3.508-2.09c-0.936-1.697-2.141-3.245-3.175-4.892
		c-0.319-0.507-0.543-1.105-0.667-1.692c-0.232-1.09-0.384-2.198-0.511-3.307c-0.027-0.229,0.133-0.614,0.319-0.711
		c2.584-1.337,5.178-2.655,7.796-3.924C13.45,8.645,13.983,8.728,14.401,8.688z"/>
	<path fill-rule="evenodd" clip-rule="evenodd" fill="#FFFFFF" d="M38.456,23.196c-2.489,1.502-4.885,2.953-7.292,4.383
		c-0.253,0.149-0.579,0.208-0.882,0.236c-1.105,0.104-2.217,0.178-3.471,0.274c0.49-0.648,0.89-1.206,1.315-1.746
		c0.656-0.829,1.3-1.669,1.996-2.464c0.693-0.792,1.021-1.664,1.064-2.729c0.065-1.57,0.238-3.139,0.431-4.701
		c0.098-0.789,0.008-1.462-0.547-2.064c-0.235-0.257-0.391-0.588-0.529-0.947c1.051,0.594,2.253,0.895,2.964,2.036
		C35.105,18.048,36.773,20.581,38.456,23.196z"/>
	<path fill-rule="evenodd" clip-rule="evenodd" d="M25.881,20.314c-0.183,2.114-2.228,2.948-3.715,4.249
		c-0.14,0.123-0.497,0.111-0.702,0.034c-1.212-0.46-2.412-0.958-3.612-1.446c-0.121-0.048-0.282-0.079-0.345-0.172
		c-0.798-1.208-1.591-2.418-2.352-3.648c-0.078-0.126,0.029-0.396,0.102-0.579c0.369-0.942,0.746-1.882,1.143-2.813
		c0.088-0.205,0.232-0.41,0.401-0.551c0.955-0.793,1.91-1.588,2.905-2.329c0.205-0.151,0.618-0.179,0.869-0.085
		c1.695,0.627,3.376,1.303,5.062,1.965c0.093,0.037,0.198,0.071,0.274,0.136c0.464,0.399,1.007,2.705,0.772,3.294
		C26.453,18.948,26.208,19.521,25.881,20.314z"/>
</g>
</svg>
