<?xml version="1.0" encoding="utf-8"?>
<!-- Generator: Adobe Illustrator 16.0.0, SVG Export Plug-In . SVG Version: 6.00 Build 0)  -->
<!DOCTYPE svg PUBLIC "-//W3C//DTD SVG 1.1//EN" "http://www.w3.org/Graphics/SVG/1.1/DTD/svg11.dtd">
<svg version="1.1" id="Layer_1" xmlns="http://www.w3.org/2000/svg" xmlns:xlink="http://www.w3.org/1999/xlink" x="0px" y="0px"
	 width="44.044px" height="44.563px" viewBox="0 0 44.044 44.563" enable-background="new 0 0 44.044 44.563" xml:space="preserve">
<g>
	<g>
		<path fill-rule="evenodd" clip-rule="evenodd" fill="#FFFFFF" d="M9.685,42.517c-0.553-0.055-1.1-0.108-1.701-0.168
			c0.199-1.999,0.406-3.915,0.568-5.835c0.031-0.384-0.01-0.827-0.174-1.167c-2.693-5.593-5.402-11.18-8.142-16.751
			c-0.324-0.661-0.366-1.086,0.199-1.661c1.013-1.03,1.907-2.176,2.857-3.282c2.857,3.665,5.694,7.307,8.598,11.031
			c0.146-0.334,0.267-0.577,0.357-0.83c0.391-1.088,0.677-2.225,1.179-3.259c0.664-1.374,0.436-2.749,0.301-4.149
			c-0.19-1.978-0.395-3.955-0.521-5.936c-0.188-2.965-0.315-5.933-0.464-8.899c-0.016-0.305-0.002-0.612-0.002-0.945
			c1.071-0.231,2.09-0.472,3.12-0.657c0.215-0.038,0.5,0.082,0.693,0.215c0.808,0.558,1.625,1.11,2.369,1.745
			c0.297,0.251,0.541,0.698,0.592,1.084c0.386,2.938,0.737,5.878,1.05,8.823c0.091,0.863,0.014,1.744,0.014,2.617
			c0.086,0.016,0.174,0.032,0.261,0.049c0.238-0.842,0.555-1.67,0.702-2.526c0.51-2.965,0.977-5.938,1.428-8.913
			c0.104-0.697,0.245-1.262,1.036-1.485c0.49-0.138,0.976-0.365,1.396-0.653c0.971-0.666,1.853-0.597,2.799,0.067
			c0.587,0.41,1.26,0.712,1.925,0.993c0.52,0.219,0.694,0.551,0.582,1.069c-0.349,1.605-0.685,3.214-1.062,4.813
			c-0.557,2.371-1.147,4.734-1.716,7.103c-0.144,0.595-0.258,1.197-0.244,1.916c0.86-0.852,1.879-1.595,2.55-2.577
			c2.021-2.959,3.908-6.013,5.849-9.029c0.178-0.279,0.359-0.556,0.577-0.89c1.543,1.29,3.043,2.543,4.581,3.83
			c-0.043,0.111-0.074,0.23-0.133,0.333c-2.247,3.947-4.462,7.911-6.767,11.822c-0.527,0.894-1.364,1.604-2.033,2.614
			c0.899-0.165,1.859-0.184,2.687-0.526c2.597-1.072,5.142-2.266,7.782-3.446c0.432,1.601,0.866,3.169,1.26,4.748
			c0.037,0.153-0.151,0.423-0.307,0.557c-2.326,2.023-4.763,3.841-7.644,5.076c-2.431,1.042-4.315,2.925-6.064,4.877
			c-1.188,1.328-2.21,2.8-3.369,4.156c-0.506,0.592-0.673,1.238-0.755,1.968c-0.152,1.35-0.345,2.696-0.531,4.123
			c-0.587-0.055-1.136-0.106-1.723-0.161L9.685,42.517z"/>
	</g>
	<g>
		<path fill-rule="evenodd" clip-rule="evenodd" d="M25.369,44.563c-0.587-0.055-1.136-0.106-1.723-0.161
			c0.211-1.707,0.368-3.316,0.63-4.91c0.089-0.551,0.329-1.145,0.677-1.577c2.261-2.818,4.293-5.866,7.296-7.993
			c1.253-0.888,2.598-1.672,3.975-2.354c2.059-1.021,3.886-2.353,5.618-3.835c0.132-0.113,0.252-0.366,0.22-0.524
			c-0.11-0.572-0.289-1.132-0.465-1.783c-1.606,0.722-3.135,1.392-4.648,2.093c-1.177,0.545-2.352,0.992-3.687,1.053
			c-1.798,0.083-3.586,0.326-5.49,0.511c0.168-0.217,0.263-0.361,0.379-0.485c0.516-0.546,1.006-1.12,1.561-1.622
			c2.347-2.128,4.087-4.696,5.567-7.474c1.125-2.116,2.321-4.195,3.507-6.278c0.228-0.403,0.263-0.669-0.17-0.964
			c-0.51-0.348-0.963-0.777-1.602-1.303c-3.095,5.774-6.892,10.929-12.316,14.712c0.054-0.311,0.109-0.688,0.188-1.06
			c0.077-0.377,0.183-0.749,0.264-1.125c0.728-3.36,1.424-6.729,2.191-10.081c0.426-1.873,0.953-3.726,1.475-5.577
			c0.122-0.434-0.019-0.624-0.376-0.769c-0.119-0.049-0.253-0.089-0.346-0.17c-1.073-0.948-2.089-0.461-3.071,0.15
			c-0.188,0.118-0.306,0.439-0.349,0.686c-0.583,3.262-1.117,6.534-1.735,9.789c-0.146,0.766-0.501,1.512-0.859,2.216
			c-0.957,1.879-1.967,3.731-3.138,5.589c0-0.336,0.004-0.672-0.001-1.007c-0.037-2.484,0.024-4.975-0.14-7.451
			c-0.187-2.798-0.696-5.58-0.829-8.379c-0.072-1.518-1.147-1.955-2.067-2.596c-0.284-0.198-0.861,0.027-1.437,0.067
			c0.121,2.31,0.207,4.501,0.354,6.688c0.141,2.084,0.349,4.164,0.523,6.246c0.108,1.286,0.23,2.571,0.307,3.86
			c0.022,0.372-0.033,0.775-0.157,1.128c-0.967,2.767-1.957,5.524-2.979,8.381C9.391,24.266,6.323,20.35,3.222,16.39
			c-0.393,0.44-0.806,0.806-1.082,1.256c-0.132,0.214-0.097,0.633,0.022,0.882c2.607,5.405,5.251,10.795,7.842,16.208
			c0.263,0.548,0.379,1.243,0.332,1.852c-0.156,1.949-0.418,3.89-0.651,5.93c-0.553-0.055-1.1-0.108-1.701-0.168
			c0.199-1.999,0.406-3.915,0.568-5.835c0.031-0.384-0.01-0.827-0.174-1.167c-2.693-5.593-5.402-11.18-8.142-16.751
			c-0.324-0.661-0.366-1.086,0.199-1.661c1.013-1.03,1.907-2.176,2.857-3.282c2.857,3.665,5.694,7.307,8.598,11.031
			c0.146-0.334,0.267-0.577,0.357-0.83c0.391-1.088,0.677-2.225,1.179-3.259c0.664-1.374,0.436-2.749,0.301-4.149
			c-0.19-1.978-0.395-3.955-0.521-5.936c-0.188-2.965-0.315-5.933-0.464-8.899c-0.016-0.305-0.002-0.612-0.002-0.945
			c1.071-0.231,2.09-0.472,3.12-0.657c0.215-0.038,0.5,0.082,0.693,0.215c0.808,0.558,1.625,1.11,2.369,1.745
			c0.297,0.251,0.541,0.698,0.592,1.084c0.386,2.938,0.737,5.878,1.05,8.823c0.091,0.863,0.014,1.744,0.014,2.617
			c0.086,0.016,0.174,0.032,0.261,0.049c0.238-0.842,0.555-1.67,0.702-2.526c0.51-2.965,0.977-5.938,1.428-8.913
			c0.104-0.697,0.245-1.262,1.036-1.485c0.49-0.138,0.976-0.365,1.396-0.653c0.971-0.666,1.853-0.597,2.799,0.067
			c0.587,0.41,1.26,0.712,1.925,0.993c0.52,0.219,0.694,0.551,0.582,1.069c-0.349,1.605-0.685,3.214-1.062,4.813
			c-0.557,2.371-1.147,4.734-1.716,7.103c-0.144,0.595-0.258,1.197-0.244,1.916c0.86-0.852,1.879-1.595,2.55-2.577
			c2.021-2.959,3.908-6.013,5.849-9.029c0.178-0.279,0.359-0.556,0.577-0.89c1.543,1.29,3.043,2.543,4.581,3.83
			c-0.043,0.111-0.074,0.23-0.133,0.333c-2.247,3.947-4.462,7.911-6.767,11.822c-0.527,0.894-1.364,1.604-2.033,2.614
			c0.899-0.165,1.859-0.184,2.687-0.526c2.597-1.072,5.142-2.266,7.782-3.446c0.432,1.601,0.866,3.169,1.26,4.748
			c0.037,0.153-0.151,0.423-0.307,0.557c-2.326,2.023-4.763,3.841-7.644,5.076c-2.431,1.042-4.315,2.925-6.064,4.877
			c-1.188,1.328-2.21,2.8-3.369,4.156c-0.506,0.592-0.673,1.238-0.755,1.968C25.748,41.79,25.556,43.136,25.369,44.563z"/>
	</g>
</g>
</svg>
