<?xml version="1.0" encoding="utf-8"?>
<!-- Generator: Adobe Illustrator 16.0.0, SVG Export Plug-In . SVG Version: 6.00 Build 0)  -->
<!DOCTYPE svg PUBLIC "-//W3C//DTD SVG 1.1//EN" "http://www.w3.org/Graphics/SVG/1.1/DTD/svg11.dtd">
<svg version="1.1" id="Layer_1" xmlns="http://www.w3.org/2000/svg" xmlns:xlink="http://www.w3.org/1999/xlink" x="0px" y="0px"
	 width="46.722px" height="22.458px" viewBox="0 0 46.722 22.458" enable-background="new 0 0 46.722 22.458" xml:space="preserve">
<g>
	<path fill-rule="evenodd" clip-rule="evenodd" d="M0,10.288C2.76,8.884,5.38,7.55,7.999,6.221c2.186-1.108,4.362-2.228,6.563-3.297
		c0.35-0.169,0.845-0.221,1.22-0.122c2.638,0.693,5.267,1.422,7.886,2.187c0.53,0.154,0.922,0.071,1.376-0.188
		c2.711-1.552,5.437-3.07,8.145-4.624c0.411-0.236,0.711-0.237,1.12,0.011c3.797,2.298,7.611,4.572,11.419,6.854
		c0.852,0.512,1.167,1.273,0.904,2.187c-0.395,1.382-0.768,2.771-1.204,4.141c-0.105,0.331-0.36,0.691-0.65,0.875
		c-4.181,2.666-8.387,5.293-12.57,7.957c-0.789,0.503-1.567,0.127-2.324,0.062c-3.394-0.294-6.783-0.68-10.173-1.034
		c-3.312-0.348-6.625-0.69-9.936-1.061c-0.277-0.031-0.592-0.183-0.79-0.38c-2.646-2.621-5.286-5.249-7.899-7.906
		C0.665,11.452,0.394,10.875,0,10.288z M3.629,11.621c-0.031,0.062-0.062,0.121-0.092,0.182c2.163,2.149,4.325,4.303,6.499,6.443
		c0.129,0.128,0.354,0.197,0.544,0.22c2.363,0.264,4.725,0.52,7.089,0.766c3.932,0.41,7.86,0.833,11.797,1.2
		c0.881,0.083,1.74,0.322,2.663-0.286c3.648-2.399,7.368-4.685,11.062-7.014c0.174-0.11,0.443-0.202,0.489-0.356
		c0.375-1.234,0.71-2.482,1.072-3.783c-0.27,0-0.398-0.021-0.519,0.003c-4.488,0.943-8.98,1.873-13.464,2.844
		c-2.472,0.536-4.908,1.017-7.49,0.615c-2.521-0.394-5.088-0.56-7.642-0.659c-3.592-0.139-7.19-0.124-10.787-0.173
		C4.442,11.616,4.035,11.621,3.629,11.621z M43.393,7.347c-0.242-0.172-0.32-0.239-0.406-0.288c-2.936-1.631-5.864-3.27-8.815-4.873
		c-0.227-0.123-0.65-0.079-0.892,0.054c-2.666,1.473-5.319,2.969-7.961,4.487c-0.478,0.276-0.902,0.352-1.44,0.196
		c-2.622-0.756-5.251-1.49-7.886-2.198c-0.339-0.091-0.787-0.099-1.088,0.049C11.782,6.32,8.679,7.905,5.573,9.481
		C5.438,9.551,5.324,9.667,5.082,9.85C5.495,9.869,5.748,9.892,6,9.892c5.875-0.021,11.741,0.117,17.587,0.778
		c1.477,0.167,2.955,0.322,4.464-0.078c2.015-0.535,4.082-0.871,6.124-1.3C37.192,8.659,40.207,8.019,43.393,7.347z"/>
	<path fill-rule="evenodd" clip-rule="evenodd" fill="#FFFFFF" d="M3.629,11.621c0.406,0,0.813-0.005,1.222,0.001
		c3.597,0.049,7.195,0.035,10.787,0.173c2.554,0.099,5.121,0.265,7.642,0.659c2.582,0.402,5.019-0.08,7.49-0.615
		c4.483-0.971,8.976-1.901,13.464-2.844c0.12-0.024,0.249-0.002,0.519-0.003c-0.362,1.301-0.697,2.549-1.072,3.783
		c-0.046,0.155-0.315,0.246-0.489,0.356c-3.693,2.329-7.413,4.614-11.062,7.014c-0.923,0.608-1.782,0.369-2.663,0.286
		c-3.937-0.367-7.865-0.79-11.797-1.2c-2.364-0.246-4.726-0.502-7.089-0.766c-0.189-0.022-0.415-0.092-0.544-0.22
		c-2.174-2.141-4.336-4.294-6.499-6.443C3.567,11.742,3.598,11.682,3.629,11.621z"/>
	<path fill-rule="evenodd" clip-rule="evenodd" fill="#FFFFFF" d="M43.393,7.347c-3.186,0.672-6.2,1.312-9.218,1.944
		c-2.042,0.429-4.109,0.765-6.124,1.3c-1.509,0.4-2.987,0.245-4.464,0.078C17.741,10.009,11.875,9.87,6,9.892
		c-0.252,0-0.505-0.022-0.918-0.042c0.242-0.183,0.355-0.299,0.491-0.369c3.105-1.576,6.209-3.161,9.331-4.706
		c0.301-0.148,0.749-0.14,1.088-0.049c2.635,0.708,5.264,1.442,7.886,2.198c0.538,0.156,0.963,0.08,1.44-0.196
		c2.642-1.518,5.295-3.014,7.961-4.487c0.241-0.133,0.665-0.177,0.892-0.054c2.951,1.603,5.88,3.242,8.815,4.873
		C43.072,7.108,43.15,7.175,43.393,7.347z"/>
</g>
</svg>
