<?xml version="1.0" encoding="UTF-8"?>
<!DOCTYPE svg  PUBLIC '-//W3C//DTD SVG 1.1//EN'  'http://www.w3.org/Graphics/SVG/1.1/DTD/svg11.dtd'>
<svg enable-background="new 0 0 870.984 234.813" version="1.1" viewBox="0 0 870.98 234.81" xml:space="preserve" xmlns="http://www.w3.org/2000/svg">
	<g clip-rule="evenodd" fill-rule="evenodd">
		<path d="m0 45.934c4.449-0.492 8.896-0.984 13.121-1.453 8.176-33.61 20.029-42.833 54.434-41.254 0 6.246 0.529 12.695-0.291 18.973-0.285 2.16-3.652 4.98-6.098 5.605-8.279 2.117-10.359 7.566-9.701 15.773 4.047 0.359 8.107 0.719 12.35 1.09v22.887c-5.164 0.371-9.803 0.707-15.5 1.121v51.287h-35.938v-51.814c-4.096-0.598-8.236-1.2-12.377-1.801v-20.414z"/>
		<path d="m870.98 64.648c-12.365-1.148-24.729-2.293-38.998-3.613v60.195c-12.391-0.898-22.744-1.652-34.361-2.496 0.775-11.465 1.248-22.363 2.305-33.195 1.369-14.078 3.318-28.094 4.781-42.16 0.553-5.316 2.5-7.648 8.377-7.887 16.391-0.648 32.742-2.223 49.125-3.145 2.883-0.16 5.846 1.082 8.771 1.68v30.621z"/>
		<path d="m586.89 0c8.26 6.354 12.375 14 9.289 24.859-2.25 7.92-9.418 13.102-18.572 12.098-8.525-0.938-14.217-7.832-13.879-16.371 0.369-9.43 6.351-15.164 12.955-20.586h10.207z"/>
		<path d="m688.1 38.445c2.064 20.453 5.715 41.447 5.893 62.465 0.195 23.063-10.51 40.082-34.949 45.621-10.65 2.41-21.568 3.637-32.844 5.484-2.6-9.586-4.881-17.977-7.322-26.973 11.998-3.172 25.453-1.797 35.631-13.133-4.127-0.609-6.828-0.949-9.51-1.41-22.283-3.797-38.004-23.84-30.631-45.637 2.104-6.223 6.492-12.801 11.729-16.613 15.932-11.604 36.651-14.44 62.003-9.804z"/>
		<path d="m376.67 152.7c-2.861-10.496-5.207-19.098-7.656-28.086 12.529-2.41 25.502-1.969 35.941-12.617-5.445-1.043-9.813-1.555-13.992-2.734-21.57-6.086-32.248-23.441-26.371-44.785 1.648-6 6.252-12.16 11.209-16.098 17.924-14.234 39.32-11.711 61.234-11.004 3.318 25.508 11.09 50.385 5.408 76.432-3.127 14.342-10.885 25.295-24.961 29.678-13.062 4.064-26.748 6.124-40.812 9.214z"/>
		<path d="m270.92 37.527c17.65-0.582 32.91-2.129 48.043-1.301 16.576 0.902 26.541 12.051 29.018 31.129 1.301 10.035 0.857 20.332 0.719 30.508-0.096 6.986-1.02 13.961-1.645 21.844-8.77-0.787-16.803-1.508-25.764-2.313 0-13.738 0.139-26.977-0.053-40.211-0.121-8.453-2.504-10.219-11.752-8.797v47.918h-38.566v-38.07-40.707z"/>
		<path d="m551.75 99.379c0 4.957-0.152 10.035 0.033 15.098 0.42 11.631-0.117 12.223-12.105 11.949-23.094-0.531-42.801-18.73-45.59-42.461-0.852-7.242-0.885-14.578-1.316-22.305-4.9-0.379-9.309-0.719-14.25-1.105v-24.125c4.227-0.469 8.059-0.895 12.838-1.422 0.193-2.926 0.488-5.91 0.576-8.902 0.334-11.654 0.316-11.574 12.322-12.465 9.787-0.734 19.559-1.691 29.793-2.59v20.773h20.475v30.879h-21.188c0.922 9.613 1.484 18.574 2.842 27.41 0.324 2.105 2.988 4.359 5.129 5.566 2.886 1.626 6.306 2.298 10.441 3.7z"/>
		<path d="m165.66 76.883c3.123-14.07 5.656-25.484 8.369-37.711 11.285 1.477 22.084 2.887 33.516 4.383-7.25 35.791-24.348 68.777-23.752 106.28-11.094 1.471-21.65 2.871-34.699 4.598 11.756-41.156-14.305-71.797-27.387-107.71 6.691-2.219 13.105-4.844 19.779-6.203 1.695-0.348 4.852 2.941 6.242 5.225 5.797 9.524 11.178 19.31 17.932 31.13z"/>
		<path d="m786.62 75.121c-14.879 1.738-27.088 3.164-39.639 4.633-0.072 6.67 4.232 10.277 8.82 9.41 12.496-2.367 18.438 7.648 27.861 12.246-5.701 10.164-14.555 15.23-24.67 16.969-16.125 2.773-31.779 1.332-43.367-12.352-18.287-21.586-8.732-64.008 16.811-75.41 15.172-6.777 35.9 0.066 44.648 16.176 4.407 8.113 6.077 17.715 9.536 28.328z"/>
		<path d="m79.111 9.109c12.859-0.582 23.783-1.078 35.9-1.629v112.15h-35.9v-110.52z"/>
		<path d="m217.08 40.457c11.588-0.621 21.438-1.148 32.289-1.73 1.137 27.219 2.24 53.668 3.383 81.035h-35.672v-79.305z"/>
		<path d="m602.08 119.72h-35.982c-0.285-1.473-0.986-3.324-0.936-5.152 0.557-20.102 1.393-40.199 1.764-60.301 0.105-5.727 2.07-8.148 7.877-8.172 7.588-0.035 15.174-0.672 23.684-1.094 1.204 25.043 2.38 49.484 3.593 74.719z"/>
		<path d="m551.27 234.81c-1.037-3.633-1.807-6.324-2.691-9.422 7.99-3.09 18.078-2.273 22.35-13.18-3.52-0.355-6.693-0.594-9.844-1.012-9.398-1.254-16.779-7.883-17.711-15.82-0.975-8.293 2.52-14.48 12.594-17.59 7.646-2.355 16.039-2.418 24.133-3.066 1.232-0.098 3.652 2.02 3.83 3.34 1.424 10.625 3.629 21.348 3.281 31.963-0.439 13.475-6.873 19.779-19.996 22.666-4.934 1.085-10.045 1.361-15.946 2.121z"/>
		<path d="m247.58 172.58c13.824 0.16 23.158 8.836 23.039 21.414-0.15 15.922-7.547 25.441-19.703 25.352-15.281-0.105-26.145-10.387-26.051-24.645 0.096-14.695 7.895-22.293 22.715-22.121z"/>
		<path d="m484.86 216.11c-4.514-0.258-7.551-0.426-11.902-0.672 0-6.996 0.119-13.652-0.063-20.297-0.068-2.465-0.145-5.453-1.5-7.211-1.236-1.598-4.412-2.809-6.359-2.404-1.645 0.342-3.811 3.188-3.916 5.033-0.441 7.561-0.186 15.16-0.186 23.473h-16.424v-56.191c5.789 0.566 9.861 0.961 14.455 1.41v13.063c1.256 0.543 1.971 1.086 2.725 1.141 19.129 1.422 22.963 5.438 23.16 24.465 0.063 5.858 0.01 11.718 0.01 18.19z"/>
		<path d="m299.06 211.99v18.66c-5.563-0.281-10.48-0.531-16.057-0.816v-7.41-45.223c8.779-0.535 15.777-1.063 22.785-1.367 8.879-0.387 13.604 3.441 16.18 12.836 2.252 8.207-0.33 14.262-8.354 18.086-4.308 2.055-9.011 3.277-14.554 5.234z"/>
		<path d="m691.59 216.78c-5.945-0.348-10.678-0.625-16.697-0.973 0-6.98 0.561-13.73-0.252-20.313-0.369-3.004-3.441-5.676-5.285-8.5-2.305 1.637-5.891 2.848-6.617 5.012-1.109 3.301-0.186 7.27-0.225 10.953-0.137 12.848-0.152 12.848-13.779 12.52v-40.02c10.811 0 21.836-1.105 32.424 0.568 4 0.635 9.16 7.318 9.969 11.916 1.575 8.98 0.462 18.431 0.462 28.837z"/>
		<path d="m399.66 215.04c-5.354 0.297-9.512 0.527-14.465 0.801v-19.844-21.121c10.371 0 19.604-0.273 28.814 0.086 7.545 0.289 12.311 5.002 13.188 12.148 1.156 9.422 1.098 18.992 1.621 29.715-6.623-0.355-11.566-0.621-17.93-0.965 0-6.664 0.18-13.055-0.086-19.43-0.115-2.723-0.584-5.77-1.986-7.973-0.926-1.457-4.02-2.582-5.729-2.16-1.451 0.355-3.193 3.094-3.275 4.852-0.355 7.612-0.152 15.254-0.152 23.891z"/>
		<path d="m371.8 193.11c-3.484 0.566-7.039 1.203-10.607 1.701-3.326 0.467-6.67 0.787-10.293 1.205-0.895 8.035 5.287 13.129 15.678 7.813 1.732 2.449 2.508 3.703 5.129 6.613-9.75 10.039-22.602 10.465-31.92 4.145-7.301-4.953-10.352-20.027-6.158-30.441 3.492-8.672 14.027-14.262 23.59-12.516 8.624 1.574 14.087 9.422 14.581 21.48z"/>
		<path d="m638.51 193.19c-6.777 0.891-13.658 1.793-20.811 2.734-0.713 7.367 2.617 10.879 9.221 9.582 5.846-1.145 9.205 0.121 10.504 6.039-7.553 7.613-20.398 9.094-30.059 3.367-6.846-4.059-10.605-17.211-7.9-27.652 2.533-9.785 10.705-15.914 21.213-15.906 10.726 8e-3 17.451 7.946 17.832 21.836z"/>
		<path d="m500.32 180.05c0.648-2.961 1.178-5.367 1.932-8.809 7.592 1.473 14.943 2.217 21.83 4.41 7.924 2.527 9.822 9.723 9.688 17.102-0.139 7.566-1.129 15.117-1.902 24.551-8.068 0-16.168 0.32-24.229-0.102-6.822-0.352-12.205-3.383-12.361-11.176-0.146-7.297 4.096-11.391 11.029-12.875 1.648-0.352 3.543-0.117 4.965-0.848 1.906-0.977 4.787-2.578 4.846-4.014 0.086-1.967-1.641-5.111-3.381-5.822-3.518-1.433-7.563-1.566-12.417-2.417z"/>
		<path d="m219.3 178.29c-1.914 2.457-3.799 5.063-5.236 6.906-1.09-0.633-3.387-1.914-6.27-2.387-4.371-0.717-6.867-0.061-9.375 3.344-3.137 4.258-1.861 11.723-0.836 14.629 2.715 7.691 12.973 3.359 14.033 2.867 1.611 2.09 5.516 5.965 7.49 8.254-8.297 9.125-24.018 10.41-32.719 2.68-8.227-7.313-9.043-28-1.457-36.875 7.268-8.496 23.559-8.481 34.37 0.582z"/>
		<path d="m221.87 20.203c0.719-12.551 6.666-18.937 17.127-18.398 8.426 0.43 13.557 6.008 13.178 14.32-0.459 10.059-9.146 18.23-18.871 17.75-7.723-0.383-11.912-5.391-11.434-13.672z"/>
	</g>
	<g fill="#fff">
		<path d="m499.64 49.473c0-3.145 2.529-5.691 5.652-5.691 3.121 0 5.65 2.547 5.652 5.688 1.104-1.102 1.773-2.387 1.773-3.777 0-4-5.275-7.246-11.785-7.246-6.506 0-11.783 3.246-11.783 7.246 0 8.16 5.227 7.258 11.688 7.246-0.74-0.962-1.197-2.154-1.197-3.466z"/>
		<path d="m529.18 37.488c-6.551 0-11.861 3.797-11.861 8.477 0 6.902 5.162 6.66 11.58 6.652-0.855-0.996-1.391-2.281-1.391-3.703 0-3.145 2.531-5.691 5.652-5.691 3.123 0 5.652 2.547 5.652 5.691 0 0.52-0.09 1.012-0.219 1.488 1.516-1.059 2.451-2.504 2.451-4.438 1e-3 -4.679-5.31-8.476-11.864-8.476z"/>
	</g>
</svg>
