<?xml version="1.0" encoding="utf-8"?>
<!-- Generator: Adobe Illustrator 16.0.0, SVG Export Plug-In . SVG Version: 6.00 Build 0)  -->
<!DOCTYPE svg PUBLIC "-//W3C//DTD SVG 1.1//EN" "http://www.w3.org/Graphics/SVG/1.1/DTD/svg11.dtd">
<svg version="1.1" id="Layer_1" xmlns="http://www.w3.org/2000/svg" xmlns:xlink="http://www.w3.org/1999/xlink" x="0px" y="0px"
	 width="35px" height="35.005px" viewBox="0 0 35 35.005" enable-background="new 0 0 35 35.005" xml:space="preserve">
<path d="M34.524,30.264l-6.816-6.816c-0.308-0.308-0.725-0.478-1.163-0.478h-1.114c1.888-2.414,3.008-5.449,3.008-8.751
	C28.438,6.364,22.074,0,14.22,0C6.364,0,0,6.364,0,14.219s6.364,14.219,14.22,14.219c3.302,0,6.338-1.12,8.751-3.007v1.114
	c0,0.438,0.17,0.855,0.478,1.163l6.816,6.815c0.643,0.643,1.682,0.643,2.318,0l1.935-1.934C35.16,31.946,35.16,30.906,34.524,30.264
	z M14.22,25.858c-6.429,0-11.639-5.201-11.639-11.639C2.581,7.791,7.782,2.58,14.22,2.58c6.428,0,11.639,5.201,11.639,11.639
	C25.858,20.647,20.657,25.858,14.22,25.858z"/>
</svg>
