<svg xmlns="http://www.w3.org/2000/svg" xmlns:xlink="http://www.w3.org/1999/xlink" width="30.432" height="26.129" viewBox="0 0 30.432 26.129" enable-background="new 0 0 30.432 26.129"><g id="Layer_1"><g><path fill="#ff6f7a" d="M27.444 12.79l-11.99 12.216c-.164.164-.301.164-.465.0L2.999 12.79C.503 10.247-.002 5.435 3.498 2.488c2.659-2.235 6.761-1.9 9.331.718l2.393 2.44 2.393-2.44c2.584-2.632 6.686-2.953 9.331-.725C30.438 5.428 29.918 10.268 27.444 12.79v0z"/><path d="M15.221 26.129c-.239.0-.596-.072-.939-.416L2.285 13.491c-1.532-1.562-2.383-3.838-2.275-6.089.105-2.206 1.115-4.223 2.844-5.678 1.318-1.107 3.021-1.717 4.798-1.717 2.184.0 4.331.911 5.89 2.5l1.679 1.713L16.9 2.506C18.463.913 20.613.0 22.796.0c1.776.0 3.479.61 4.792 1.717 1.724 1.454 2.73 3.472 2.834 5.683.106 2.259-.74 4.536-2.266 6.09l-11.99 12.216C15.817 26.057 15.46 26.129 15.221 26.129zM7.652 2.006c-1.326.0-2.54.432-3.511 1.248-1.664 1.4-2.079 3.08-2.134 4.243-.081 1.705.556 3.422 1.706 4.593l11.509 11.725L26.73 12.089c1.143-1.164 1.776-2.882 1.695-4.595-.055-1.167-.468-2.851-2.125-4.248C25.333 2.431 24.121 2 22.796 2c-1.65.0-3.279.695-4.469 1.907l-2.392 2.44c-.376.384-1.052.384-1.428.0l-2.393-2.44C10.929 2.699 9.302 2.006 7.652 2.006z"/></g></g><g id="Layer_2"/></svg>