<svg xmlns="http://www.w3.org/2000/svg" xmlns:xlink="http://www.w3.org/1999/xlink" width="40.437" height="41.961" viewBox="0 0 40.437 41.961" enable-background="new 0 0 40.437 41.961"><g id="Layer_1"><g><path fill="#ffcf3e" d="M14.819 1 24.906 10.65 38.573 7.813 32.513 20.388 39.437 32.509 25.604 30.631 16.215 40.961 13.727 27.225 1 21.487 13.295 14.877z"/><path d="M16.215 41.961c-.092.0-.185-.013-.275-.039-.366-.105-.641-.409-.708-.783L12.836 27.92.589 22.399c-.347-.156-.575-.496-.588-.877-.013-.38.191-.735.526-.916l11.832-6.361 1.466-13.354c.042-.378.294-.7.652-.831.357-.13.758-.046 1.033.217l9.707 9.287L38.37 6.833c.371-.079.757.063.991.363s.278.707.113 1.05l-5.833 12.102 6.663 11.665c.189.331.174.74-.039 1.055-.212.315-.58.487-.964.432L25.99 31.692l-9.035 9.941C16.763 41.845 16.492 41.961 16.215 41.961zM3.259 21.409l10.879 4.904c.3.135.514.41.573.733l2.127 11.743 8.025-8.831c.221-.244.544-.366.875-.318l11.825 1.605-5.918-10.361c-.164-.286-.176-.634-.033-.93l5.181-10.75-11.684 2.426c-.323.067-.657-.029-.895-.256l-8.622-8.25L14.29 14.986c-.036.327-.23.616-.521.771L3.259 21.409z"/></g></g><g id="Layer_2"/></svg>