<svg width="24" height="24" viewBox="0 0 24 24" fill="none" xmlns="http://www.w3.org/2000/svg">
<path fill-rule="evenodd" clip-rule="evenodd" d="M11.4697 8.84467C11.7626 8.55178 12.2374 8.55178 12.5303 8.84467L17.0303 13.3447C17.3232 13.6376 17.3232 14.1124 17.0303 14.4053C16.7374 14.6982 16.2626 14.6982 15.9697 14.4053L12 10.4357L8.03033 14.4053C7.73744 14.6982 7.26256 14.6982 6.96967 14.4053C6.67678 14.1124 6.67678 13.6376 6.96967 13.3447L11.4697 8.84467Z" fill="#21272A"/>
<path fill-rule="evenodd" clip-rule="evenodd" d="M2.25 12C2.25 6.61704 6.61704 2.25 12 2.25C17.383 2.25 21.75 6.61704 21.75 12C21.75 17.383 17.383 21.75 12 21.75C6.61704 21.75 2.25 17.383 2.25 12ZM12 3.75C7.44546 3.75 3.75 7.44546 3.75 12C3.75 16.5545 7.44546 20.25 12 20.25C16.5545 20.25 20.25 16.5545 20.25 12C20.25 7.44546 16.5545 3.75 12 3.75Z" fill="#21272A"/>
</svg>
