<svg id="Layer_1" xmlns="http://www.w3.org/2000/svg" xmlns:xlink="http://www.w3.org/1999/xlink" width="60" height="60.002" viewBox="0 0 60 60.002" enable-background="new 0 0 60 60.002"><g><path d="M56.316 60.002c-.943.0-1.886-.36-2.605-1.079L1.079 6.289c-1.439-1.438-1.439-3.771.0-5.21 1.438-1.438 3.771-1.438 5.21.0l52.632 52.633c1.438 1.438 1.438 3.771-.001 5.21C58.202 59.642 57.258 60.002 56.316 60.002z"/><path d="M3.684 60.002c-.942.0-1.886-.36-2.604-1.079-1.439-1.439-1.439-3.771.0-5.21L53.71 1.08c1.439-1.439 3.772-1.439 5.21.0 1.439 1.439 1.439 3.771.001 5.21L6.29 58.923C5.57 59.642 4.627 60.002 3.684 60.002z"/></g></svg>