<?xml version="1.0" encoding="utf-8"?>
<!-- Generator: Adobe Illustrator 16.0.0, SVG Export Plug-In . SVG Version: 6.00 Build 0)  -->
<!DOCTYPE svg PUBLIC "-//W3C//DTD SVG 1.1//EN" "http://www.w3.org/Graphics/SVG/1.1/DTD/svg11.dtd">
<svg version="1.1" id="Layer_1" xmlns="http://www.w3.org/2000/svg" xmlns:xlink="http://www.w3.org/1999/xlink" x="0px" y="0px"
	 width="49.069px" height="27.255px" viewBox="0 0 49.069 27.255" enable-background="new 0 0 49.069 27.255" xml:space="preserve">
<g>
	<path fill-rule="evenodd" clip-rule="evenodd" d="M8.815,0.857C9.457,0.552,10.012,0.288,10.616,0
		c0.138,0.274,0.256,0.482,0.35,0.7c1.246,2.877,2.475,5.762,3.748,8.626c0.152,0.342,0.491,0.664,0.823,0.854
		c2.327,1.333,4.665,2.647,7.022,3.924c0.525,0.285,1.131,0.504,1.721,0.569c2.854,0.317,5.713,0.585,8.573,0.836
		c0.487,0.042,1.005-0.013,1.479-0.136c2.085-0.538,4.186-1.04,6.227-1.715c1.014-0.335,1.922-0.998,2.859-1.545
		c0.94-0.549,1.857-1.139,2.831-1.74c0.371,0.542,0.73,1.068,1.142,1.668c-1.235,0.769-2.479,1.458-3.632,2.278
		c-2.176,1.548-4.841,1.65-7.219,2.573c-2.737,1.063-5.454,0.363-8.182,0.181c-1.53-0.103-3.056-0.265-4.577-0.452
		c-0.542-0.067-1.115-0.197-1.588-0.456c-2.844-1.551-5.665-3.146-8.488-4.738c-0.203-0.115-0.432-0.29-0.521-0.492
		C11.716,7.581,10.267,4.215,8.815,0.857z"/>
	<path fill-rule="evenodd" clip-rule="evenodd" d="M0.661,9.75C0.425,9.073,0.225,8.499,0,7.856
		c2.411-0.718,4.761-1.418,7.177-2.137C7.405,6.362,7.616,6.957,7.85,7.614C5.438,8.33,3.087,9.029,0.661,9.75z"/>
	<path fill-rule="evenodd" clip-rule="evenodd" d="M38.376,19.06c0.698-0.212,1.284-0.39,1.954-0.593
		c0.75,2.162,1.495,4.309,2.267,6.529c-0.66,0.203-1.291,0.396-1.957,0.6C39.886,23.415,39.146,21.281,38.376,19.06z"/>
	<path fill-rule="evenodd" clip-rule="evenodd" d="M34.435,26.83c-0.676,0.144-1.295,0.275-2.002,0.425
		c-0.506-2.064-1-4.081-1.517-6.186c0.683-0.141,1.318-0.271,2.01-0.414C33.434,22.73,33.928,24.752,34.435,26.83z"/>
	<path fill-rule="evenodd" clip-rule="evenodd" d="M49.069,20.275c-0.563,0.453-1.032,0.832-1.56,1.258
		c-1.393-1.574-2.731-3.089-4.098-4.636c0.532-0.429,1.026-0.828,1.563-1.261C46.332,17.175,47.672,18.691,49.069,20.275z"/>
	<path fill-rule="evenodd" clip-rule="evenodd" d="M25.979,26.208c-0.725-0.127-1.324-0.231-2.024-0.354
		c0.339-1.951,0.674-3.878,1.021-5.872c0.587,0.159,1.103,0.261,1.584,0.45c0.163,0.064,0.363,0.369,0.337,0.53
		C26.619,22.686,26.301,24.401,25.979,26.208z"/>
	<path fill-rule="evenodd" clip-rule="evenodd" d="M8.877,19.649c-0.37-0.579-0.71-1.112-1.091-1.709
		c1.568-0.922,3.075-1.82,4.602-2.684c0.16-0.091,0.473-0.042,0.651,0.057c0.407,0.227,0.775,0.524,1.292,0.885
		C12.465,17.378,10.696,18.498,8.877,19.649z"/>
	<path fill-rule="evenodd" clip-rule="evenodd" d="M9.808,10.559c0.273,0.646,0.514,1.209,0.787,1.85
		C8.77,13.068,6.99,13.711,5.23,14.347c-0.265-0.631-0.509-1.212-0.779-1.855C6.185,11.866,7.969,11.223,9.808,10.559z"/>
	<path fill-rule="evenodd" clip-rule="evenodd" d="M17.226,23.063c-0.652-0.354-1.166-0.633-1.8-0.977
		c0.801-1.56,1.596-3.107,2.429-4.73c0.629,0.328,1.21,0.631,1.848,0.964C18.878,19.898,18.073,21.438,17.226,23.063z"/>
</g>
</svg>
