<?xml version="1.0" encoding="utf-8"?>
<!-- Generator: Adobe Illustrator 16.0.0, SVG Export Plug-In . SVG Version: 6.00 Build 0)  -->
<!DOCTYPE svg PUBLIC "-//W3C//DTD SVG 1.1//EN" "http://www.w3.org/Graphics/SVG/1.1/DTD/svg11.dtd">
<svg version="1.1" id="Layer_1" xmlns="http://www.w3.org/2000/svg" xmlns:xlink="http://www.w3.org/1999/xlink" x="0px" y="0px"
	 width="46.858px" height="41.694px" viewBox="0 0 46.858 41.694" enable-background="new 0 0 46.858 41.694" xml:space="preserve">
<g>
	<path fill-rule="evenodd" clip-rule="evenodd" d="M0,12.393c3.797-2.056,7.513-4.068,11.23-6.081c1.2-0.65,2.418-1.271,3.595-1.961
		c0.479-0.281,0.806-0.242,1.241,0.077c2.268,1.668,4.558,3.304,6.889,4.987c1.244-1.331,2.482-2.646,3.711-3.97
		c1.583-1.708,3.149-3.429,4.747-5.124c0.175-0.184,0.539-0.365,0.756-0.311c4.878,1.207,9.749,2.446,14.688,3.697
		c-0.794,2.009-1.566,3.973-2.345,5.933c-1.94,4.882-3.843,9.779-5.858,14.63c-0.41,0.991-1.194,1.849-1.898,2.691
		c-3.94,4.724-7.908,9.424-11.869,14.129c-0.165,0.196-0.349,0.378-0.561,0.604c-0.96-1.014-1.9-2.002-2.833-2.996
		c-3.931-4.188-7.919-8.324-11.761-12.591c-1.459-1.621-2.589-3.541-3.855-5.334C3.928,18.006,1.99,15.231,0,12.393z M2.943,13.054
		c1.312,1.874,2.56,3.677,3.831,5.466c1.586,2.231,3.024,4.598,4.826,6.641c3.403,3.86,7.02,7.531,10.549,11.281
		c0.685,0.729,1.372,1.456,2.136,2.266c0.173-0.221,0.293-0.385,0.425-0.541c3.278-3.896,6.571-7.78,9.826-11.696
		c0.85-1.022,1.806-2.047,2.324-3.24c1.589-3.659,2.99-7.4,4.463-11.11c0.928-2.337,1.852-4.675,2.79-7.042
		c-0.283-0.084-0.5-0.159-0.723-0.215c-3.357-0.852-6.719-1.687-10.07-2.565c-0.592-0.155-0.972-0.076-1.395,0.39
		c-2.293,2.53-4.62,5.031-6.94,7.536c-0.573,0.619-1.165,1.222-1.756,1.841c-2.535-1.821-5.004-3.606-7.492-5.364
		c-0.198-0.14-0.597-0.216-0.792-0.113C10.965,8.708,7.001,10.86,2.943,13.054z"/>
	<path fill-rule="evenodd" clip-rule="evenodd" fill="#FFFFFF" d="M2.943,13.054c4.058-2.193,8.022-4.345,12.002-6.465
		c0.194-0.103,0.594-0.027,0.792,0.113c2.488,1.758,4.957,3.542,7.492,5.364c0.591-0.62,1.183-1.223,1.756-1.841
		c2.32-2.505,4.646-5.005,6.94-7.536c0.422-0.465,0.803-0.544,1.395-0.39c3.351,0.879,6.713,1.713,10.07,2.565
		c0.223,0.056,0.44,0.13,0.723,0.215c-0.938,2.368-1.862,4.705-2.79,7.042c-1.473,3.71-2.874,7.451-4.463,11.11
		c-0.518,1.193-1.474,2.218-2.324,3.24c-3.254,3.916-6.548,7.8-9.826,11.696c-0.132,0.156-0.252,0.319-0.425,0.541
		c-0.764-0.81-1.451-1.538-2.136-2.266c-3.529-3.75-7.146-7.421-10.549-11.281c-1.802-2.043-3.24-4.41-4.826-6.641
		C5.503,16.731,4.255,14.927,2.943,13.054z"/>
</g>
</svg>
