<svg xmlns="http://www.w3.org/2000/svg" xmlns:xlink="http://www.w3.org/1999/xlink" width="28.001" height="32.352" viewBox="0 0 28.001 32.352" enable-background="new 0 0 28.001 32.352"><g id="Layer_1"><path d="M27.996 31.288 25.537 7.873c-.052-.49-.465-.862-.958-.862h-4.621V5.957C19.958 2.672 17.286.0 14 0S8.043 2.672 8.043 5.957v1.054H3.422c-.493.0-.906.372-.958.862L.005 31.288c-.028.271.06.542.242.745.184.202.443.318.716.318h26.074c.272.0.533-.116.716-.318C27.936 31.83 28.024 31.56 27.996 31.288zM9.969 5.957c0-2.223 1.809-4.031 4.031-4.031s4.031 1.809 4.031 4.031v1.054H9.969V5.957zM2.032 30.426 4.29 8.937h3.754v2.122c0 .531.431.962.963.962.531.0.963-.431.963-.962V8.937h8.063v2.122c0 .531.432.962.963.962s.963-.431.963-.962V8.937h3.754l2.257 21.489H2.032z"/></g><g id="Layer_2"/></svg>