<?xml version="1.0" standalone="no"?>
<!DOCTYPE svg PUBLIC "-//W3C//DTD SVG 20010904//EN"
 "http://www.w3.org/TR/2001/REC-SVG-20010904/DTD/svg10.dtd">
<svg version="1.0" xmlns="http://www.w3.org/2000/svg"
 width="833.000000pt" height="833.000000pt" viewBox="0 0 833.000000 833.000000"
 preserveAspectRatio="xMidYMid meet">
<metadata>
Created by potrace 1.11, written by Peter Selinger 2001-2013
</metadata>
<g transform="translate(0.000000,833.000000) scale(0.100000,-0.100000)"
fill="#000000" stroke="none">
<path d="M3774 7507 c-9 -26 -521 -1538 -569 -1682 -15 -44 -29 -87 -32 -95
-44 -124 -207 -603 -213 -625 -5 -16 -39 -118 -75 -225 -37 -107 -105 -305
-150 -440 -134 -394 -449 -1324 -635 -1870 -94 -278 -176 -517 -180 -532 l-9
-28 354 0 354 0 26 83 c15 45 28 89 30 97 2 8 13 42 24 75 27 81 102 317 105
330 1 6 26 84 55 175 67 208 127 398 246 773 l47 147 1003 0 1004 0 37 -117
c31 -104 82 -266 117 -373 6 -19 12 -39 13 -45 1 -5 52 -170 114 -365 125
-397 200 -637 226 -722 l18 -58 368 0 c202 0 368 1 368 3 0 6 -25 82 -119 357
-156 461 -435 1283 -516 1520 -40 118 -125 370 -190 560 -64 190 -155 458
-201 595 -47 138 -96 282 -109 320 -13 39 -96 284 -185 545 -89 261 -182 536
-206 610 -25 74 -48 142 -51 150 -3 8 -68 198 -144 422 -75 224 -140 412 -143
417 -9 14 -776 12 -782 -2z m396 -562 c0 -9 241 -848 257 -895 8 -25 16 -49
17 -55 7 -30 34 -120 86 -290 32 -104 77 -251 99 -325 23 -74 45 -144 50 -155
5 -11 41 -123 80 -250 39 -126 80 -257 91 -290 22 -68 103 -327 105 -335 1 -3
7 -25 14 -49 7 -23 10 -46 7 -49 -8 -7 -1634 -7 -1642 1 -3 3 -1 21 5 39 6 18
11 38 12 43 1 6 7 26 14 45 8 19 53 157 100 305 48 149 98 304 112 345 14 41
26 82 28 90 2 8 8 29 13 45 119 375 291 945 385 1280 69 243 89 314 93 330 19
77 38 143 45 158 9 15 29 24 29 12z"/>
<path d="M1910 823 l0 -263 33 -1 c248 -3 4470 1 4474 5 7 7 10 515 3 517 -3
1 -1019 2 -2257 3 l-2253 1 0 -262z"/>
</g>
</svg>
